          <svg
            xmlns="http://www.w3.org/2000/svg"
            xmlns:xlink="http://www.w3.org/1999/xlink"
            viewBox="0 0 500 500"
            width="500"
            height="500"
            preserveAspectRatio="xMidYMid meet"
            style="
              width: 100%;
              height: 100%;
              transform: translate3d(0px, 0px, 0px);
              content-visibility: visible;
            "
          >
            <defs>
            <style>.cls-1{fill:#907a48;}.cls-2{fill:none;stroke:#907a48;stroke-miterlimit:10;stroke-width:3;stroke-opacity:1;stroke-linecap:butt;stroke-linejoin:miter;}</style>
              <clippath id="__lottie_element_23">
                <rect width="500" height="500" x="0" y="0"></rect>
              </clippath>
            </defs>
            <g clip-path="url(#__lottie_element_23)">
              <g
                transform="matrix(0,-1,1,0,65.33900451660156,434.6610107421875)"
                opacity="1"
                style="display: block"
              >
                <g
                  opacity="1"
                  transform="matrix(1,0,0,1,184.66099548339844,184.66099548339844)"
                >
                  <path
                    class="cls-2"
                    d=" M177.16099548339844,0.0010000000474974513 C177.16099548339844,97.84500122070312 97.84300231933594,177.16200256347656 -0.0010000000474974513,177.16200256347656 C-97.84400177001953,177.16200256347656 -177.16200256347656,97.84500122070312 -177.16200256347656,0.0010000000474974513 C-177.16200256347656,-97.84200286865234 -97.84400177001953,-177.16099548339844 -0.0010000000474974513,-177.16099548339844 C97.84300231933594,-177.16099548339844 177.16099548339844,-97.84200286865234 177.16099548339844,0.0010000000474974513z"
                  ></path>
                </g>
              </g>
              <g
                transform="matrix(1,0,0,1,149.30099487304688,139.8939971923828)"
                opacity="1"
                style="display: block"
              >
                <g
                  opacity="1"
                  transform="matrix(1,0,0,1,103.69999694824219,102.24400329589844)"
                >
                  <path
                    class="cls-1"
                    d=" M86.8030014038086,94.75399780273438 C86.8030014038086,94.75399780273438 86.8030014038086,97.0999984741211 86.8030014038086,97.0999984741211 C86.8030014038086,97.0999984741211 23.722000122070312,97.0999984741211 23.722000122070312,97.0999984741211 C23.722000122070312,97.0999984741211 23.722000122070312,94.75399780273438 23.722000122070312,94.75399780273438 C23.722000122070312,94.75399780273438 36.49300003051758,72.85800170898438 36.49300003051758,72.85800170898438 C36.49300003051758,72.85800170898438 18.76799964904785,29.847000122070312 18.76799964904785,29.847000122070312 C18.76799964904785,29.847000122070312 -38.84000015258789,29.847000122070312 -38.84000015258789,29.847000122070312 C-38.84000015258789,29.847000122070312 -55.78300094604492,72.85800170898438 -55.78300094604492,72.85800170898438 C-55.78300094604492,72.85800170898438 -41.18600082397461,94.49299621582031 -41.18600082397461,94.49299621582031 C-41.18600082397461,94.49299621582031 -41.18600082397461,97.0999984741211 -41.18600082397461,97.0999984741211 C-41.18600082397461,97.0999984741211 -86.8030014038086,97.0999984741211 -86.8030014038086,97.0999984741211 C-86.8030014038086,97.0999984741211 -86.8030014038086,94.49299621582031 -86.8030014038086,94.49299621582031 C-86.8030014038086,94.49299621582031 -69.33799743652344,72.85800170898438 -69.33799743652344,72.85800170898438 C-69.33799743652344,72.85800170898438 -17.726999282836914,-56.17499923706055 -17.726999282836914,-56.17499923706055 C-17.726999282836914,-56.17499923706055 -29.454999923706055,-84.8489990234375 -29.454999923706055,-84.8489990234375 C-29.454999923706055,-84.8489990234375 3.9100000858306885,-97.0999984741211 3.9100000858306885,-97.0999984741211 C3.9100000858306885,-97.0999984741211 72.20600128173828,72.85800170898438 72.20600128173828,72.85800170898438 C72.20600128173828,72.85800170898438 86.8030014038086,94.75399780273438 86.8030014038086,94.75399780273438z M14.597999572753906,19.420000076293945 C14.597999572753906,19.420000076293945 -10.689000129699707,-41.8380012512207 -10.689000129699707,-41.8380012512207 C-10.689000129699707,-41.8380012512207 -34.66899871826172,19.420000076293945 -34.66899871826172,19.420000076293945 C-34.66899871826172,19.420000076293945 14.597999572753906,19.420000076293945 14.597999572753906,19.420000076293945z"
                  ></path>
                </g>
                <g
                  opacity="1"
                  transform="matrix(1,0,0,1,158.26300048828125,45.327999114990234)"
                >
                  <path
                    class="cls-1"
                    d=" M22.07699966430664,-8.843000411987305 C22.07699966430664,-8.843000411987305 -5.061999797821045,-12.730999946594238 -5.061999797821045,-12.730999946594238 C-5.061999797821045,-12.730999946594238 -22.07699966430664,8.881999969482422 -22.07699966430664,8.881999969482422 C-22.07699966430664,8.881999969482422 5.159999847412109,12.730999946594238 5.159999847412109,12.730999946594238 C5.159999847412109,12.730999946594238 22.07699966430664,-8.843000411987305 22.07699966430664,-8.843000411987305z"
                  ></path>
                </g>
                <g
                  opacity="1"
                  transform="matrix(1,0,0,1,156.66600036621094,76.4990005493164)"
                >
                  <path
                    class="cls-1"
                    d=" M8.456999778747559,-10.706999778747559 C8.456999778747559,-10.706999778747559 -18.832000732421875,-14.53600025177002 -18.832000732421875,-14.53600025177002 C-18.832000732421875,-14.53600025177002 -8.505000114440918,11.104999542236328 -8.505000114440918,11.104999542236328 C-8.505000114440918,11.104999542236328 18.832000732421875,14.53600025177002 18.832000732421875,14.53600025177002 C18.832000732421875,14.53600025177002 8.456999778747559,-10.706999778747559 8.456999778747559,-10.706999778747559z"
                  ></path>
                </g>
                <g
                  opacity="1"
                  transform="matrix(1,0,0,1,135.3459930419922,23.77199935913086)"
                >
                  <path
                    class="cls-1"
                    d=" M3.7100000381469727,-23.523000717163086 C3.7100000381469727,-23.523000717163086 -13.668000221252441,-2.1429998874664307 -13.668000221252441,-2.1429998874664307 C-13.668000221252441,-2.1429998874664307 -3.3989999294281006,23.523000717163086 -3.3989999294281006,23.523000717163086 C-3.3989999294281006,23.523000717163086 13.668000221252441,1.8880000114440918 13.668000221252441,1.8880000114440918 C13.668000221252441,1.8880000114440918 3.7100000381469727,-23.523000717163086 3.7100000381469727,-23.523000717163086z"
                  ></path>
                </g>
                <g
                  opacity="1"
                  transform="matrix(1,0,0,1,22.347000122070312,117.9260025024414)"
                >
                  <path
                    class="cls-1"
                    d=" M-22.097000122070312,-8.793000221252441 C-22.097000122070312,-8.793000221252441 -5.131999969482422,12.743000030517578 -5.131999969482422,12.743000030517578 C-5.131999969482422,12.743000030517578 22.097000122070312,8.831999778747559 22.097000122070312,8.831999778747559 C22.097000122070312,8.831999778747559 5.0320000648498535,-12.743000030517578 5.0320000648498535,-12.743000030517578 C5.0320000648498535,-12.743000030517578 -22.097000122070312,-8.793000221252441 -22.097000122070312,-8.793000221252441z"
                  ></path>
                </g>
                <g
                  opacity="1"
                  transform="matrix(1,0,0,1,45.14699935913086,96.49400329589844)"
                >
                  <path
                    class="cls-1"
                    d=" M-13.663000106811523,1.9179999828338623 C-13.663000106811523,1.9179999828338623 3.4509999752044678,23.514999389648438 3.4509999752044678,23.514999389648438 C3.4509999752044678,23.514999389648438 13.663000106811523,-2.1740000247955322 13.663000106811523,-2.1740000247955322 C13.663000106811523,-2.1740000247955322 -3.763000011444092,-23.514999389648438 -3.763000011444092,-23.514999389648438 C-3.763000011444092,-23.514999389648438 -13.663000106811523,1.9179999828338623 -13.663000106811523,1.9179999828338623z"
                  ></path>
                </g>
                <g
                  opacity="1"
                  transform="matrix(1,0,0,1,23.94499969482422,149.26699829101562)"
                >
                  <path
                    class="cls-1"
                    d=" M-18.798999786376953,14.57800006866455 C-18.798999786376953,14.57800006866455 8.529000282287598,11.086999893188477 8.529000282287598,11.086999893188477 C8.529000282287598,11.086999893188477 18.798999786376953,-14.579000473022461 18.798999786376953,-14.579000473022461 C18.798999786376953,-14.579000473022461 -8.482000350952148,-10.687999725341797 -8.482000350952148,-10.687999725341797 C-8.482000350952148,-10.687999725341797 -18.798999786376953,14.57800006866455 -18.798999786376953,14.57800006866455z"
                  ></path>
                </g>
              </g>
            </g>
          </svg>